<?xml version="1.0" encoding="UTF-8"?>
<svg xmlns="http://www.w3.org/2000/svg" viewBox="0 0 1254 1254" role="img" aria-label="Libre IA Martinet dark">
  <g transform="translate(0.000000,1254.000000) scale(0.100000,-0.100000)"
fill="#FFFFFF" stroke="none">
<path d="M3232 9198 c4 -57 12 -134 19 -173 104 -646 407 -1201 873 -1603 213
-184 426 -323 701 -457 294 -144 561 -241 1110 -404 581 -173 892 -297 1182
-472 404 -244 687 -591 790 -967 23 -86 26 -116 27 -267 1 -107 -5 -222 -16
-310 -18 -140 -51 -274 -61 -245 -3 8 -17 51 -32 95 -40 118 -115 236 -215
338 -48 48 -91 87 -97 87 -6 0 -2 -36 9 -92 28 -141 34 -368 14 -508 -19 -129
-75 -309 -131 -419 -147 -292 -399 -545 -784 -786 -142 -89 -401 -224 -539
-281 l-93 -39 103 -3 c283 -9 655 52 973 159 782 264 1431 772 1864 1456 185
294 255 445 531 1146 75 189 177 395 254 511 196 295 495 481 868 543 54 9 97
17 95 19 -13 12 -321 135 -435 173 -405 136 -694 140 -1002 15 -152 -62 -289
-156 -515 -357 -119 -105 -195 -153 -293 -184 -74 -23 -93 -25 -195 -20 -225
10 -324 73 -575 367 -477 557 -925 866 -1917 1320 -1112 508 -1879 947 -2417
1382 -53 43 -98 78 -100 78 -2 0 0 -46 4 -102z M2510 7715 l0 -175 165 0 165
0 0 175 0 175 -165 0 -165 0 0 -175z M3100 7010 l0 -170 165 0 165 0 0 170 0
170 -165 0 -165 0 0 -170z M2630 6315 l0 -146 138 3 137 3 3 143 3 142 -141 0
-140 0 0 -145z M3435 6180 c-3 -5 -5 -82 -4 -170 l2 -160 168 0 169 0 0 170 0
170 -164 0 c-99 0 -167 -4 -171 -10z M3897 5493 c-4 -3 -7 -71 -7 -150 l0
-143 150 0 150 0 0 150 0 150 -143 0 c-79 0 -147 -3 -150 -7z M5100 4910 l0
-170 170 0 170 0 0 170 0 170 -170 0 -170 0 0 -170z M5910 4490 l0 -140 140 0
140 0 0 140 0 140 -140 0 -140 0 0 -140z M6670 4135 c0 -133 0 -135 23 -137
12 0 70 -2 129 -2 l107 -1 6 50 c4 28 5 88 3 135 l-3 85 -132 3 -133 3 0 -136z"/>
</g>
  <g transform="translate(0.000000,1254.000000) scale(0.100000,-0.100000)"
fill="#22C55E" stroke="none">
<path d="M4050 7011 c0 -38 59 -249 95 -341 123 -310 290 -555 523 -763 371
-333 786 -526 1402 -652 69 -14 258 -48 420 -76 439 -74 610 -122 810 -225
228 -118 383 -268 484 -471 19 -37 42 -98 52 -135 10 -38 21 -68 25 -68 15 0
51 169 56 260 19 341 -203 730 -577 1014 -326 247 -676 399 -1410 611 -620
179 -846 260 -1165 414 -214 104 -414 225 -588 355 -96 72 -127 91 -127 77z
M1920 6880 l0 -141 133 3 132 3 3 138 3 137 -136 0 -135 0 0 -140z M2223 5644
c-2 -5 -2 -68 -1 -140 l3 -129 138 -3 137 -3 0 143 0 143 -136 0 c-86 0 -138
-4 -141 -11z M3147 5093 c-4 -3 -7 -64 -7 -135 l0 -128 33 -1 c17 -1 77 -1
132 -1 l100 0 3 136 3 136 -129 0 c-71 0 -132 -3 -135 -7z M4300 4635 l0 -136
128 3 127 3 0 130 0 130 -127 3 -128 3 0 -136z"/>
</g>
</svg>
