<svg xmlns="http://www.w3.org/2000/svg" width="1280" height="640" viewBox="0 0 1280 640" role="img" aria-labelledby="title desc">
  <title id="title">AI Practices repository</title>
  <desc id="desc">A learning path connects scenarios, sources and human review.</desc>
  <rect width="1280" height="640" fill="#000000"/><path d="M0 0V640" stroke="#111827" stroke-width="1"/><path d="M64 0V640" stroke="#111827" stroke-width="1"/><path d="M128 0V640" stroke="#111827" stroke-width="1"/><path d="M192 0V640" stroke="#111827" stroke-width="1"/><path d="M256 0V640" stroke="#111827" stroke-width="1"/><path d="M320 0V640" stroke="#111827" stroke-width="1"/><path d="M384 0V640" stroke="#111827" stroke-width="1"/><path d="M448 0V640" stroke="#111827" stroke-width="1"/><path d="M512 0V640" stroke="#111827" stroke-width="1"/><path d="M576 0V640" stroke="#111827" stroke-width="1"/><path d="M640 0V640" stroke="#111827" stroke-width="1"/><path d="M704 0V640" stroke="#111827" stroke-width="1"/><path d="M768 0V640" stroke="#111827" stroke-width="1"/><path d="M832 0V640" stroke="#111827" stroke-width="1"/><path d="M896 0V640" stroke="#111827" stroke-width="1"/><path d="M960 0V640" stroke="#111827" stroke-width="1"/><path d="M1024 0V640" stroke="#111827" stroke-width="1"/><path d="M1088 0V640" stroke="#111827" stroke-width="1"/><path d="M1152 0V640" stroke="#111827" stroke-width="1"/><path d="M1216 0V640" stroke="#111827" stroke-width="1"/><path d="M1280 0V640" stroke="#111827" stroke-width="1"/><path d="M0 0H1280" stroke="#111827" stroke-width="1"/><path d="M0 64H1280" stroke="#111827" stroke-width="1"/><path d="M0 128H1280" stroke="#111827" stroke-width="1"/><path d="M0 192H1280" stroke="#111827" stroke-width="1"/><path d="M0 256H1280" stroke="#111827" stroke-width="1"/><path d="M0 320H1280" stroke="#111827" stroke-width="1"/><path d="M0 384H1280" stroke="#111827" stroke-width="1"/><path d="M0 448H1280" stroke="#111827" stroke-width="1"/><path d="M0 512H1280" stroke="#111827" stroke-width="1"/><path d="M0 576H1280" stroke="#111827" stroke-width="1"/><path d="M0 640H1280" stroke="#111827" stroke-width="1"/><path d="M0 628H1280" stroke="#22C55E" stroke-width="12"/>
  <text x="80" y="104" fill="#22C55E" font-family="Inter, Arial, sans-serif" font-size="28" font-weight="700" letter-spacing="4">LIBRE AI · PRODUCT</text>
  <text x="80" y="238" fill="#FFFFFF" font-family="Plus Jakarta Sans, Arial, sans-serif" font-size="64" font-weight="700">AI Practices</text>
  <text x="80" y="318" fill="#E5E7EB" font-family="Inter, Arial, sans-serif" font-size="34">github.com/libre-ai/ai-practices</text>
  <rect x="80" y="374" width="260" height="64" rx="8" fill="none" stroke="#22C55E" stroke-width="3"/>
  <text x="210" y="416" text-anchor="middle" fill="#FFFFFF" font-family="Inter, Arial, sans-serif" font-size="24" font-weight="700">DOJO</text>
  <g transform="translate(780 64) scale(.95)"><path d="M88 104h144c56 0 80 32 80 80v240H168c-48 0-80-32-80-80z" fill="none" stroke="#22C55E" stroke-width="12" stroke-linecap="round" stroke-linejoin="round"/><path d="M424 104H280c-56 0-80 32-80 80v240h144c48 0 80-32 80-80z" fill="none" stroke="#6B7280" stroke-width="8" stroke-linecap="round" stroke-linejoin="round"/><path d="m224 256 28 28 56-72" fill="none" stroke="#22C55E" stroke-width="12" stroke-linecap="round" stroke-linejoin="round"/></g>
</svg>
